<svg width="125" height="198" viewBox="0 0 125 198" fill="none" xmlns="http://www.w3.org/2000/svg">
<path d="M0.0627447 40.1135L14.0813 34.5064V49.6047L0.0627447 55.2118V40.1135ZM14.0813 34.5064L28.0998 28.8993V43.9976L14.0813 49.6047V34.5064ZM28.0998 28.8993L42.1183 23.2922V38.3905L28.0998 43.9976V28.8993ZM42.1183 23.2922L56.1369 17.6851V32.7834L42.1183 38.3905V23.2922ZM56.1369 17.6851L70.1554 12.078V27.1763L56.1369 32.7834V17.6851ZM70.1554 12.078L84.1739 6.47091V21.5692L70.1554 27.1763V12.078ZM70.1554 27.1763L84.1739 21.5692V36.6675L70.1554 42.2746V27.1763ZM56.1369 32.7834L70.1554 27.1763V42.2746L56.1369 47.8817V32.7834ZM42.1183 38.3905L56.1369 32.7834V47.8817L42.1183 53.4888V38.3905ZM28.0998 43.9976L42.1183 38.3905V53.4888L28.0998 59.0959V43.9976ZM14.0813 49.6047L28.0998 43.9976V59.0959L14.0813 64.703V49.6047ZM0.0627447 55.2118L14.0813 49.6047V64.703L0.0627447 70.3101V55.2118ZM84.1739 21.5692L98.1925 15.9621V31.0604L84.1739 36.6675V21.5692ZM70.1554 42.2746L84.1739 36.6675V51.7658L70.1554 57.3729V42.2746ZM84.1739 36.6675L98.1925 31.0604V46.1587L84.1739 51.7658V36.6675ZM84.1739 51.7658L98.1925 46.1587V61.257L84.1739 66.8641V51.7658ZM84.1739 66.8641L98.1925 61.257V76.3553L84.1739 81.9624V66.8641ZM70.1554 72.4712L84.1739 66.8641V81.9624L70.1554 87.5695V72.4712ZM70.1554 57.3729L84.1739 51.7658V66.8641L70.1554 72.4712V57.3729ZM70.1554 87.5695L84.1739 81.9624V97.0607L70.1554 102.668V87.5695ZM70.1554 102.668L84.1739 97.0607V112.159L70.1554 117.766V102.668ZM56.1369 108.275L70.1554 102.668V117.766L56.1369 123.373V108.275ZM56.1369 93.1766L70.1554 87.5695V102.668L56.1369 108.275V93.1766ZM42.1183 98.7837L56.1369 93.1766V108.275L42.1183 113.882V98.7837ZM42.1183 113.882L56.1369 108.275V123.373L42.1183 128.98V113.882ZM28.0998 119.489L42.1183 113.882V128.98L28.0998 134.587V119.489ZM28.0998 104.391L42.1183 98.7837V113.882L28.0998 119.489V104.391ZM14.0813 109.998L28.0998 104.391V119.489L14.0813 125.096V109.998ZM0.0627447 115.605L14.0813 109.998V125.096L0.0627447 130.703V115.605ZM0.0627447 130.703L14.0813 125.096V140.195L0.0627447 145.802V130.703ZM14.0813 125.096L28.0998 119.489V134.587L14.0813 140.195V125.096ZM0.0627447 70.3101L14.0813 64.703V79.8013L0.0627447 85.4084V70.3101ZM14.0813 64.703L28.0998 59.0959V74.1942L14.0813 79.8013V64.703ZM14.0813 79.8013L28.0998 74.1942V89.2925L14.0813 94.8996V79.8013ZM14.0813 94.8996L28.0998 89.2925V104.391L14.0813 109.998V94.8996ZM0.0627447 85.4084L14.0813 79.8013V94.8996L0.0627447 100.507V85.4084ZM0.0627447 100.507L14.0813 94.8996V109.998L0.0627447 115.605V100.507ZM0.0627447 145.802L14.0813 140.195V155.293L0.0627447 160.9V145.802ZM14.0813 140.195L28.0998 134.587V149.686L14.0813 155.293V140.195ZM14.0813 155.293L28.0998 149.686V164.784L14.0813 170.391V155.293ZM14.0813 170.391L28.0998 164.784V179.882L14.0813 185.489V170.391ZM0.0627447 175.998L14.0813 170.391V185.489L0.0627447 191.097V175.998ZM0.0627447 160.9L14.0813 155.293V170.391L0.0627447 175.998V160.9ZM84.1739 81.9624L98.1925 76.3553V91.4536L84.1739 97.0607V81.9624Z" fill="#0094FF" style="fill:#0094FF;fill:color(display-p3 0.0000 0.5800 1.0000);fill-opacity:1;"/>
<path d="M0.0627447 40.1135V39.6135L-0.401497 39.7992V40.2992L0.0627447 40.1135ZM14.0813 34.5064L14.5455 34.3207V33.8207L14.0813 34.0064V34.5064ZM14.0813 49.6047V50.1047L14.5455 49.919V49.419L14.0813 49.6047ZM0.0627447 55.2118L-0.401497 55.3975V55.8975L0.0627447 55.7118V55.2118ZM14.0813 34.5064V34.0064L13.617 34.1921V34.6921L14.0813 34.5064ZM28.0998 28.8993L28.564 28.7136V28.2136L28.0998 28.3993V28.8993ZM28.0998 43.9976V44.4976L28.564 44.3119V43.8119L28.0998 43.9976ZM14.0813 49.6047L13.617 49.7904V50.2904L14.0813 50.1047V49.6047ZM28.0998 28.8993V28.3993L27.6356 28.585V29.085L28.0998 28.8993ZM42.1183 23.2922L42.5826 23.1065V22.6065L42.1183 22.7922V23.2922ZM42.1183 38.3905V38.8905L42.5826 38.7048V38.2048L42.1183 38.3905ZM28.0998 43.9976L27.6356 44.1833V44.6833L28.0998 44.4976V43.9976ZM42.1183 23.2922V22.7922L41.6541 22.9779V23.4779L42.1183 23.2922ZM56.1369 17.6851L56.6011 17.4994V16.9994L56.1369 17.1851V17.6851ZM56.1369 32.7834V33.2834L56.6011 33.0977V32.5977L56.1369 32.7834ZM42.1183 38.3905L41.6541 38.5762V39.0762L42.1183 38.8905V38.3905ZM56.1369 17.6851V17.1851L55.6726 17.3708V17.8708L56.1369 17.6851ZM70.1554 12.078L70.6196 11.8923V11.3923L70.1554 11.578V12.078ZM70.1554 27.1763V27.6763L70.6196 27.4906V26.9906L70.1554 27.1763ZM56.1369 32.7834L55.6726 32.9691V33.4691L56.1369 33.2834V32.7834ZM70.1554 12.078V11.578L69.6912 11.7637V12.2637L70.1554 12.078ZM84.1739 6.47091L84.6382 6.28523V5.78523L84.1739 5.97091V6.47091ZM84.1739 21.5692V22.0692L84.6382 21.8835V21.3835L84.1739 21.5692ZM70.1554 27.1763L69.6912 27.362V27.862L70.1554 27.6763V27.1763ZM70.1554 27.1763V26.6763L69.6912 26.862V27.362L70.1554 27.1763ZM84.1739 21.5692L84.6382 21.3835V20.8835L84.1739 21.0692V21.5692ZM84.1739 36.6675V37.1675L84.6382 36.9818V36.4818L84.1739 36.6675ZM70.1554 42.2746L69.6912 42.4603V42.9603L70.1554 42.7746V42.2746ZM56.1369 32.7834V32.2834L55.6726 32.4691V32.9691L56.1369 32.7834ZM70.1554 27.1763L70.6196 26.9906V26.4906L70.1554 26.6763V27.1763ZM70.1554 42.2746V42.7746L70.6196 42.5889V42.0889L70.1554 42.2746ZM56.1369 47.8817L55.6726 48.0674V48.5674L56.1369 48.3817V47.8817ZM42.1183 38.3905V37.8905L41.6541 38.0762V38.5762L42.1183 38.3905ZM56.1369 32.7834L56.6011 32.5977V32.0977L56.1369 32.2834V32.7834ZM56.1369 47.8817V48.3817L56.6011 48.196V47.696L56.1369 47.8817ZM42.1183 53.4888L41.6541 53.6745V54.1745L42.1183 53.9888V53.4888ZM28.0998 43.9976V43.4976L27.6356 43.6833V44.1833L28.0998 43.9976ZM42.1183 38.3905L42.5826 38.2048V37.7048L42.1183 37.8905V38.3905ZM42.1183 53.4888V53.9888L42.5826 53.8031V53.3031L42.1183 53.4888ZM28.0998 59.0959L27.6356 59.2816V59.7816L28.0998 59.5959V59.0959ZM14.0813 49.6047V49.1047L13.617 49.2904V49.7904L14.0813 49.6047ZM28.0998 43.9976L28.564 43.8119V43.3119L28.0998 43.4976V43.9976ZM28.0998 59.0959V59.5959L28.564 59.4102V58.9102L28.0998 59.0959ZM14.0813 64.703L13.617 64.8887V65.3887L14.0813 65.203V64.703ZM0.0627447 55.2118V54.7118L-0.401497 54.8975V55.3975L0.0627447 55.2118ZM14.0813 49.6047L14.5455 49.419V48.919L14.0813 49.1047V49.6047ZM14.0813 64.703V65.203L14.5455 65.0173V64.5173L14.0813 64.703ZM0.0627447 70.3101L-0.401497 70.4958V70.9958L0.0627447 70.8101V70.3101ZM84.1739 21.5692V21.0692L83.7097 21.2549V21.7549L84.1739 21.5692ZM98.1925 15.9621L98.6567 15.7764V15.2764L98.1925 15.4621V15.9621ZM98.1925 31.0604V31.5604L98.6567 31.3747V30.8747L98.1925 31.0604ZM84.1739 36.6675L83.7097 36.8532V37.3532L84.1739 37.1675V36.6675ZM70.1554 42.2746V41.7746L69.6912 41.9603V42.4603L70.1554 42.2746ZM84.1739 36.6675L84.6382 36.4818V35.9818L84.1739 36.1675V36.6675ZM84.1739 51.7658V52.2658L84.6382 52.0801V51.5801L84.1739 51.7658ZM70.1554 57.3729L69.6912 57.5586V58.0586L70.1554 57.8729V57.3729ZM84.1739 36.6675V36.1675L83.7097 36.3532V36.8532L84.1739 36.6675ZM98.1925 31.0604L98.6567 30.8747V30.3747L98.1925 30.5604V31.0604ZM98.1925 46.1587V46.6587L98.6567 46.473V45.973L98.1925 46.1587ZM84.1739 51.7658L83.7097 51.9515V52.4515L84.1739 52.2658V51.7658ZM84.1739 51.7658V51.2658L83.7097 51.4515V51.9515L84.1739 51.7658ZM98.1925 46.1587L98.6567 45.973V45.473L98.1925 45.6587V46.1587ZM98.1925 61.257V61.757L98.6567 61.5713V61.0713L98.1925 61.257ZM84.1739 66.8641L83.7097 67.0498V67.5498L84.1739 67.3641V66.8641ZM84.1739 66.8641V66.3641L83.7097 66.5498V67.0498L84.1739 66.8641ZM98.1925 61.257L98.6567 61.0713V60.5713L98.1925 60.757V61.257ZM98.1925 76.3553V76.8553L98.6567 76.6696V76.1696L98.1925 76.3553ZM84.1739 81.9624L83.7097 82.1481V82.6481L84.1739 82.4624V81.9624ZM70.1554 72.4712V71.9712L69.6912 72.1569V72.6569L70.1554 72.4712ZM84.1739 66.8641L84.6382 66.6784V66.1784L84.1739 66.3641V66.8641ZM84.1739 81.9624V82.4624L84.6382 82.2767V81.7767L84.1739 81.9624ZM70.1554 87.5695L69.6912 87.7552V88.2552L70.1554 88.0695V87.5695ZM70.1554 57.3729V56.8729L69.6912 57.0586V57.5586L70.1554 57.3729ZM84.1739 51.7658L84.6382 51.5801V51.0801L84.1739 51.2658V51.7658ZM84.1739 66.8641V67.3641L84.6382 67.1784V66.6784L84.1739 66.8641ZM70.1554 72.4712L69.6912 72.6569V73.1569L70.1554 72.9712V72.4712ZM70.1554 87.5695V87.0695L69.6912 87.2552V87.7552L70.1554 87.5695ZM84.1739 81.9624L84.6382 81.7767V81.2767L84.1739 81.4624V81.9624ZM84.1739 97.0607V97.5607L84.6382 97.375V96.875L84.1739 97.0607ZM70.1554 102.668L69.6912 102.854V103.354L70.1554 103.168V102.668ZM70.1554 102.668V102.168L69.6912 102.354V102.854L70.1554 102.668ZM84.1739 97.0607L84.6382 96.875V96.375L84.1739 96.5607V97.0607ZM84.1739 112.159V112.659L84.6382 112.473V111.973L84.1739 112.159ZM70.1554 117.766L69.6912 117.952V118.452L70.1554 118.266V117.766ZM56.1369 108.275V107.775L55.6726 107.961V108.461L56.1369 108.275ZM70.1554 102.668L70.6196 102.482V101.982L70.1554 102.168V102.668ZM70.1554 117.766V118.266L70.6196 118.08V117.58L70.1554 117.766ZM56.1369 123.373L55.6726 123.559V124.059L56.1369 123.873V123.373ZM56.1369 93.1766V92.6766L55.6726 92.8623V93.3623L56.1369 93.1766ZM70.1554 87.5695L70.6196 87.3838V86.8838L70.1554 87.0695V87.5695ZM70.1554 102.668V103.168L70.6196 102.982V102.482L70.1554 102.668ZM56.1369 108.275L55.6726 108.461V108.961L56.1369 108.775V108.275ZM42.1183 98.7837V98.2837L41.6541 98.4694V98.9694L42.1183 98.7837ZM56.1369 93.1766L56.6011 92.9909V92.4909L56.1369 92.6766V93.1766ZM56.1369 108.275V108.775L56.6011 108.589V108.089L56.1369 108.275ZM42.1183 113.882L41.6541 114.068V114.568L42.1183 114.382V113.882ZM42.1183 113.882V113.382L41.6541 113.568V114.068L42.1183 113.882ZM56.1369 108.275L56.6011 108.089V107.589L56.1369 107.775V108.275ZM56.1369 123.373V123.873L56.6011 123.688V123.188L56.1369 123.373ZM42.1183 128.98L41.6541 129.166V129.666L42.1183 129.48V128.98ZM28.0998 119.489V118.989L27.6356 119.175V119.675L28.0998 119.489ZM42.1183 113.882L42.5826 113.696V113.196L42.1183 113.382V113.882ZM42.1183 128.98V129.48L42.5826 129.295V128.795L42.1183 128.98ZM28.0998 134.587L27.6356 134.773V135.273L28.0998 135.087V134.587ZM28.0998 104.391V103.891L27.6356 104.077V104.577L28.0998 104.391ZM42.1183 98.7837L42.5826 98.598V98.098L42.1183 98.2837V98.7837ZM42.1183 113.882V114.382L42.5826 114.196V113.696L42.1183 113.882ZM28.0998 119.489L27.6356 119.675V120.175L28.0998 119.989V119.489ZM14.0813 109.998V109.498L13.617 109.684V110.184L14.0813 109.998ZM28.0998 104.391L28.564 104.205V103.705L28.0998 103.891V104.391ZM28.0998 119.489V119.989L28.564 119.803V119.303L28.0998 119.489ZM14.0813 125.096L13.617 125.282V125.782L14.0813 125.596V125.096ZM0.0627447 115.605V115.105L-0.401497 115.291V115.791L0.0627447 115.605ZM14.0813 109.998L14.5455 109.812V109.312L14.0813 109.498V109.998ZM14.0813 125.096V125.596L14.5455 125.411V124.911L14.0813 125.096ZM0.0627447 130.703L-0.401497 130.889V131.389L0.0627447 131.203V130.703ZM0.0627447 130.703V130.203L-0.401497 130.389V130.889L0.0627447 130.703ZM14.0813 125.096L14.5455 124.911V124.411L14.0813 124.596V125.096ZM14.0813 140.195V140.695L14.5455 140.509V140.009L14.0813 140.195ZM0.0627447 145.802L-0.401497 145.987V146.487L0.0627447 146.302V145.802ZM14.0813 125.096V124.596L13.617 124.782V125.282L14.0813 125.096ZM28.0998 119.489L28.564 119.303V118.803L28.0998 118.989V119.489ZM28.0998 134.587V135.087L28.564 134.902V134.402L28.0998 134.587ZM14.0813 140.195L13.617 140.38V140.88L14.0813 140.695V140.195ZM0.0627447 70.3101V69.8101L-0.401497 69.9958V70.4958L0.0627447 70.3101ZM14.0813 64.703L14.5455 64.5173V64.0173L14.0813 64.203V64.703ZM14.0813 79.8013V80.3013L14.5455 80.1156V79.6156L14.0813 79.8013ZM0.0627447 85.4084L-0.401497 85.5941V86.0941L0.0627447 85.9084V85.4084ZM14.0813 64.703V64.203L13.617 64.3887V64.8887L14.0813 64.703ZM28.0998 59.0959L28.564 58.9102V58.4102L28.0998 58.5959V59.0959ZM28.0998 74.1942V74.6942L28.564 74.5085V74.0085L28.0998 74.1942ZM14.0813 79.8013L13.617 79.987V80.487L14.0813 80.3013V79.8013ZM14.0813 79.8013V79.3013L13.617 79.487V79.987L14.0813 79.8013ZM28.0998 74.1942L28.564 74.0085V73.5085L28.0998 73.6942V74.1942ZM28.0998 89.2925V89.7925L28.564 89.6068V89.1068L28.0998 89.2925ZM14.0813 94.8996L13.617 95.0853V95.5853L14.0813 95.3996V94.8996ZM14.0813 94.8996V94.3996L13.617 94.5853V95.0853L14.0813 94.8996ZM28.0998 89.2925L28.564 89.1068V88.6068L28.0998 88.7925V89.2925ZM28.0998 104.391V104.891L28.564 104.705V104.205L28.0998 104.391ZM14.0813 109.998L13.617 110.184V110.684L14.0813 110.498V109.998ZM0.0627447 85.4084V84.9084L-0.401497 85.0941V85.5941L0.0627447 85.4084ZM14.0813 79.8013L14.5455 79.6156V79.1156L14.0813 79.3013V79.8013ZM14.0813 94.8996V95.3996L14.5455 95.2139V94.7139L14.0813 94.8996ZM0.0627447 100.507L-0.401497 100.692V101.192L0.0627447 101.007V100.507ZM0.0627447 100.507V100.007L-0.401497 100.192V100.692L0.0627447 100.507ZM14.0813 94.8996L14.5455 94.7139V94.2139L14.0813 94.3996V94.8996ZM14.0813 109.998V110.498L14.5455 110.312V109.812L14.0813 109.998ZM0.0627447 115.605L-0.401497 115.791V116.291L0.0627447 116.105V115.605ZM0.0627447 145.802V145.302L-0.401497 145.487V145.987L0.0627447 145.802ZM14.0813 140.195L14.5455 140.009V139.509L14.0813 139.695V140.195ZM14.0813 155.293V155.793L14.5455 155.607V155.107L14.0813 155.293ZM0.0627447 160.9L-0.401497 161.086V161.586L0.0627447 161.4V160.9ZM14.0813 140.195V139.695L13.617 139.88V140.38L14.0813 140.195ZM28.0998 134.587L28.564 134.402V133.902L28.0998 134.087V134.587ZM28.0998 149.686V150.186L28.564 150V149.5L28.0998 149.686ZM14.0813 155.293L13.617 155.479V155.979L14.0813 155.793V155.293ZM14.0813 155.293V154.793L13.617 154.979V155.479L14.0813 155.293ZM28.0998 149.686L28.564 149.5V149L28.0998 149.186V149.686ZM28.0998 164.784V165.284L28.564 165.098V164.598L28.0998 164.784ZM14.0813 170.391L13.617 170.577V171.077L14.0813 170.891V170.391ZM14.0813 170.391V169.891L13.617 170.077V170.577L14.0813 170.391ZM28.0998 164.784L28.564 164.598V164.098L28.0998 164.284V164.784ZM28.0998 179.882V180.382L28.564 180.197V179.697L28.0998 179.882ZM14.0813 185.489L13.617 185.675V186.175L14.0813 185.989V185.489ZM0.0627447 175.998V175.498L-0.401497 175.684V176.184L0.0627447 175.998ZM14.0813 170.391L14.5455 170.205V169.705L14.0813 169.891V170.391ZM14.0813 185.489V185.989L14.5455 185.804V185.304L14.0813 185.489ZM0.0627447 191.097L-0.401497 191.282V191.782L0.0627447 191.597V191.097ZM0.0627447 160.9V160.4L-0.401497 160.586V161.086L0.0627447 160.9ZM14.0813 155.293L14.5455 155.107V154.607L14.0813 154.793V155.293ZM14.0813 170.391V170.891L14.5455 170.705V170.205L14.0813 170.391ZM0.0627447 175.998L-0.401497 176.184V176.684L0.0627447 176.498V175.998ZM84.1739 81.9624V81.4624L83.7097 81.6481V82.1481L84.1739 81.9624ZM98.1925 76.3553L98.6567 76.1696V75.6696L98.1925 75.8553V76.3553ZM98.1925 91.4536V91.9536L98.6567 91.7679V91.2679L98.1925 91.4536ZM84.1739 97.0607L83.7097 97.2464V97.7464L84.1739 97.5607V97.0607ZM0.0627447 40.6135L14.0813 35.0064V34.0064L0.0627447 39.6135V40.6135ZM13.617 34.6921V49.7904L14.5455 49.419V34.3207L13.617 34.6921ZM14.0813 49.1047L0.0627447 54.7118V55.7118L14.0813 50.1047V49.1047ZM0.526987 55.0261V39.9278L-0.401497 40.2992V55.3975L0.526987 55.0261ZM14.0813 35.0064L28.0998 29.3993V28.3993L14.0813 34.0064V35.0064ZM27.6356 29.085V44.1833L28.564 43.8119V28.7136L27.6356 29.085ZM28.0998 43.4976L14.0813 49.1047V50.1047L28.0998 44.4976V43.4976ZM14.5455 49.419V34.3207L13.617 34.6921V49.7904L14.5455 49.419ZM28.0998 29.3993L42.1183 23.7922V22.7922L28.0998 28.3993V29.3993ZM41.6541 23.4779V38.5762L42.5826 38.2048V23.1065L41.6541 23.4779ZM42.1183 37.8905L28.0998 43.4976V44.4976L42.1183 38.8905V37.8905ZM28.564 43.8119V28.7136L27.6356 29.085V44.1833L28.564 43.8119ZM42.1183 23.7922L56.1369 18.1851V17.1851L42.1183 22.7922V23.7922ZM55.6726 17.8708V32.9691L56.6011 32.5977V17.4994L55.6726 17.8708ZM56.1369 32.2834L42.1183 37.8905V38.8905L56.1369 33.2834V32.2834ZM42.5826 38.2048V23.1065L41.6541 23.4779V38.5762L42.5826 38.2048ZM56.1369 18.1851L70.1554 12.578V11.578L56.1369 17.1851V18.1851ZM69.6912 12.2637V27.362L70.6196 26.9906V11.8923L69.6912 12.2637ZM70.1554 26.6763L56.1369 32.2834V33.2834L70.1554 27.6763V26.6763ZM56.6011 32.5977V17.4994L55.6726 17.8708V32.9691L56.6011 32.5977ZM70.1554 12.578L84.1739 6.97091V5.97091L70.1554 11.578V12.578ZM83.7097 6.6566V21.7549L84.6382 21.3835V6.28523L83.7097 6.6566ZM84.1739 21.0692L70.1554 26.6763V27.6763L84.1739 22.0692V21.0692ZM70.6196 26.9906V11.8923L69.6912 12.2637V27.362L70.6196 26.9906ZM70.1554 27.6763L84.1739 22.0692V21.0692L70.1554 26.6763V27.6763ZM83.7097 21.7549V36.8532L84.6382 36.4818V21.3835L83.7097 21.7549ZM84.1739 36.1675L70.1554 41.7746V42.7746L84.1739 37.1675V36.1675ZM70.6196 42.0889V26.9906L69.6912 27.362V42.4603L70.6196 42.0889ZM56.1369 33.2834L70.1554 27.6763V26.6763L56.1369 32.2834V33.2834ZM69.6912 27.362V42.4603L70.6196 42.0889V26.9906L69.6912 27.362ZM70.1554 41.7746L56.1369 47.3817V48.3817L70.1554 42.7746V41.7746ZM56.6011 47.696V32.5977L55.6726 32.9691V48.0674L56.6011 47.696ZM42.1183 38.8905L56.1369 33.2834V32.2834L42.1183 37.8905V38.8905ZM55.6726 32.9691V48.0674L56.6011 47.696V32.5977L55.6726 32.9691ZM56.1369 47.3817L42.1183 52.9888V53.9888L56.1369 48.3817V47.3817ZM42.5826 53.3031V38.2048L41.6541 38.5762V53.6745L42.5826 53.3031ZM28.0998 44.4976L42.1183 38.8905V37.8905L28.0998 43.4976V44.4976ZM41.6541 38.5762V53.6745L42.5826 53.3031V38.2048L41.6541 38.5762ZM42.1183 52.9888L28.0998 58.5959V59.5959L42.1183 53.9888V52.9888ZM28.564 58.9102V43.8119L27.6356 44.1833V59.2816L28.564 58.9102ZM14.0813 50.1047L28.0998 44.4976V43.4976L14.0813 49.1047V50.1047ZM27.6356 44.1833V59.2816L28.564 58.9102V43.8119L27.6356 44.1833ZM28.0998 58.5959L14.0813 64.203V65.203L28.0998 59.5959V58.5959ZM14.5455 64.5173V49.419L13.617 49.7904V64.8887L14.5455 64.5173ZM0.0627447 55.7118L14.0813 50.1047V49.1047L0.0627447 54.7118V55.7118ZM13.617 49.7904V64.8887L14.5455 64.5173V49.419L13.617 49.7904ZM14.0813 64.203L0.0627447 69.8101V70.8101L14.0813 65.203V64.203ZM0.526987 70.1244V55.0261L-0.401497 55.3975V70.4958L0.526987 70.1244ZM84.1739 22.0692L98.1925 16.4621V15.4621L84.1739 21.0692V22.0692ZM97.7282 16.1478V31.2461L98.6567 30.8747V15.7764L97.7282 16.1478ZM98.1925 30.5604L84.1739 36.1675V37.1675L98.1925 31.5604V30.5604ZM84.6382 36.4818V21.3835L83.7097 21.7549V36.8532L84.6382 36.4818ZM70.1554 42.7746L84.1739 37.1675V36.1675L70.1554 41.7746V42.7746ZM83.7097 36.8532V51.9515L84.6382 51.5801V36.4818L83.7097 36.8532ZM84.1739 51.2658L70.1554 56.8729V57.8729L84.1739 52.2658V51.2658ZM70.6196 57.1872V42.0889L69.6912 42.4603V57.5586L70.6196 57.1872ZM84.1739 37.1675L98.1925 31.5604V30.5604L84.1739 36.1675V37.1675ZM97.7282 31.2461V46.3444L98.6567 45.973V30.8747L97.7282 31.2461ZM98.1925 45.6587L84.1739 51.2658V52.2658L98.1925 46.6587V45.6587ZM84.6382 51.5801V36.4818L83.7097 36.8532V51.9515L84.6382 51.5801ZM84.1739 52.2658L98.1925 46.6587V45.6587L84.1739 51.2658V52.2658ZM97.7282 46.3444V61.4427L98.6567 61.0713V45.973L97.7282 46.3444ZM98.1925 60.757L84.1739 66.3641V67.3641L98.1925 61.757V60.757ZM84.6382 66.6784V51.5801L83.7097 51.9515V67.0498L84.6382 66.6784ZM84.1739 67.3641L98.1925 61.757V60.757L84.1739 66.3641V67.3641ZM97.7282 61.4427V76.541L98.6567 76.1696V61.0713L97.7282 61.4427ZM98.1925 75.8553L84.1739 81.4624V82.4624L98.1925 76.8553V75.8553ZM84.6382 81.7767V66.6784L83.7097 67.0498V82.1481L84.6382 81.7767ZM70.1554 72.9712L84.1739 67.3641V66.3641L70.1554 71.9712V72.9712ZM83.7097 67.0498V82.1481L84.6382 81.7767V66.6784L83.7097 67.0498ZM84.1739 81.4624L70.1554 87.0695V88.0695L84.1739 82.4624V81.4624ZM70.6196 87.3838V72.2855L69.6912 72.6569V87.7552L70.6196 87.3838ZM70.1554 57.8729L84.1739 52.2658V51.2658L70.1554 56.8729V57.8729ZM83.7097 51.9515V67.0498L84.6382 66.6784V51.5801L83.7097 51.9515ZM84.1739 66.3641L70.1554 71.9712V72.9712L84.1739 67.3641V66.3641ZM70.6196 72.2855V57.1872L69.6912 57.5586V72.6569L70.6196 72.2855ZM70.1554 88.0695L84.1739 82.4624V81.4624L70.1554 87.0695V88.0695ZM83.7097 82.1481V97.2464L84.6382 96.875V81.7767L83.7097 82.1481ZM84.1739 96.5607L70.1554 102.168V103.168L84.1739 97.5607V96.5607ZM70.6196 102.482V87.3838L69.6912 87.7552V102.854L70.6196 102.482ZM70.1554 103.168L84.1739 97.5607V96.5607L70.1554 102.168V103.168ZM83.7097 97.2464V112.345L84.6382 111.973V96.875L83.7097 97.2464ZM84.1739 111.659L70.1554 117.266V118.266L84.1739 112.659V111.659ZM70.6196 117.58V102.482L69.6912 102.854V117.952L70.6196 117.58ZM56.1369 108.775L70.1554 103.168V102.168L56.1369 107.775V108.775ZM69.6912 102.854V117.952L70.6196 117.58V102.482L69.6912 102.854ZM70.1554 117.266L56.1369 122.873V123.873L70.1554 118.266V117.266ZM56.6011 123.188V108.089L55.6726 108.461V123.559L56.6011 123.188ZM56.1369 93.6766L70.1554 88.0695V87.0695L56.1369 92.6766V93.6766ZM69.6912 87.7552V102.854L70.6196 102.482V87.3838L69.6912 87.7552ZM70.1554 102.168L56.1369 107.775V108.775L70.1554 103.168V102.168ZM56.6011 108.089V92.9909L55.6726 93.3623V108.461L56.6011 108.089ZM42.1183 99.2837L56.1369 93.6766V92.6766L42.1183 98.2837V99.2837ZM55.6726 93.3623V108.461L56.6011 108.089V92.9909L55.6726 93.3623ZM56.1369 107.775L42.1183 113.382V114.382L56.1369 108.775V107.775ZM42.5826 113.696V98.598L41.6541 98.9694V114.068L42.5826 113.696ZM42.1183 114.382L56.1369 108.775V107.775L42.1183 113.382V114.382ZM55.6726 108.461V123.559L56.6011 123.188V108.089L55.6726 108.461ZM56.1369 122.873L42.1183 128.48V129.48L56.1369 123.873V122.873ZM42.5826 128.795V113.696L41.6541 114.068V129.166L42.5826 128.795ZM28.0998 119.989L42.1183 114.382V113.382L28.0998 118.989V119.989ZM41.6541 114.068V129.166L42.5826 128.795V113.696L41.6541 114.068ZM42.1183 128.48L28.0998 134.087V135.087L42.1183 129.48V128.48ZM28.564 134.402V119.303L27.6356 119.675V134.773L28.564 134.402ZM28.0998 104.891L42.1183 99.2837V98.2837L28.0998 103.891V104.891ZM41.6541 98.9694V114.068L42.5826 113.696V98.598L41.6541 98.9694ZM42.1183 113.382L28.0998 118.989V119.989L42.1183 114.382V113.382ZM28.564 119.303V104.205L27.6356 104.577V119.675L28.564 119.303ZM14.0813 110.498L28.0998 104.891V103.891L14.0813 109.498V110.498ZM27.6356 104.577V119.675L28.564 119.303V104.205L27.6356 104.577ZM28.0998 118.989L14.0813 124.596V125.596L28.0998 119.989V118.989ZM14.5455 124.911V109.812L13.617 110.184V125.282L14.5455 124.911ZM0.0627447 116.105L14.0813 110.498V109.498L0.0627447 115.105V116.105ZM13.617 110.184V125.282L14.5455 124.911V109.812L13.617 110.184ZM14.0813 124.596L0.0627447 130.203V131.203L14.0813 125.596V124.596ZM0.526987 130.518V115.419L-0.401497 115.791V130.889L0.526987 130.518ZM0.0627447 131.203L14.0813 125.596V124.596L0.0627447 130.203V131.203ZM13.617 125.282V140.38L14.5455 140.009V124.911L13.617 125.282ZM14.0813 139.695L0.0627447 145.302V146.302L14.0813 140.695V139.695ZM0.526987 145.616V130.518L-0.401497 130.889V145.987L0.526987 145.616ZM14.0813 125.596L28.0998 119.989V118.989L14.0813 124.596V125.596ZM27.6356 119.675V134.773L28.564 134.402V119.303L27.6356 119.675ZM28.0998 134.087L14.0813 139.695V140.695L28.0998 135.087V134.087ZM14.5455 140.009V124.911L13.617 125.282V140.38L14.5455 140.009ZM0.0627447 70.8101L14.0813 65.203V64.203L0.0627447 69.8101V70.8101ZM13.617 64.8887V79.987L14.5455 79.6156V64.5173L13.617 64.8887ZM14.0813 79.3013L0.0627447 84.9084V85.9084L14.0813 80.3013V79.3013ZM0.526987 85.2227V70.1244L-0.401497 70.4958V85.5941L0.526987 85.2227ZM14.0813 65.203L28.0998 59.5959V58.5959L14.0813 64.203V65.203ZM27.6356 59.2816V74.3799L28.564 74.0085V58.9102L27.6356 59.2816ZM28.0998 73.6942L14.0813 79.3013V80.3013L28.0998 74.6942V73.6942ZM14.5455 79.6156V64.5173L13.617 64.8887V79.987L14.5455 79.6156ZM14.0813 80.3013L28.0998 74.6942V73.6942L14.0813 79.3013V80.3013ZM27.6356 74.3799V89.4782L28.564 89.1068V74.0085L27.6356 74.3799ZM28.0998 88.7925L14.0813 94.3996V95.3996L28.0998 89.7925V88.7925ZM14.5455 94.7139V79.6156L13.617 79.987V95.0853L14.5455 94.7139ZM14.0813 95.3996L28.0998 89.7925V88.7925L14.0813 94.3996V95.3996ZM27.6356 89.4782V104.577L28.564 104.205V89.1068L27.6356 89.4782ZM28.0998 103.891L14.0813 109.498V110.498L28.0998 104.891V103.891ZM14.5455 109.812V94.7139L13.617 95.0853V110.184L14.5455 109.812ZM0.0627447 85.9084L14.0813 80.3013V79.3013L0.0627447 84.9084V85.9084ZM13.617 79.987V95.0853L14.5455 94.7139V79.6156L13.617 79.987ZM14.0813 94.3996L0.0627447 100.007V101.007L14.0813 95.3996V94.3996ZM0.526987 100.321V85.2227L-0.401497 85.5941V100.692L0.526987 100.321ZM0.0627447 101.007L14.0813 95.3996V94.3996L0.0627447 100.007V101.007ZM13.617 95.0853V110.184L14.5455 109.812V94.7139L13.617 95.0853ZM14.0813 109.498L0.0627447 115.105V116.105L14.0813 110.498V109.498ZM0.526987 115.419V100.321L-0.401497 100.692V115.791L0.526987 115.419ZM0.0627447 146.302L14.0813 140.695V139.695L0.0627447 145.302V146.302ZM13.617 140.38V155.479L14.5455 155.107V140.009L13.617 140.38ZM14.0813 154.793L0.0627447 160.4V161.4L14.0813 155.793V154.793ZM0.526987 160.714V145.616L-0.401497 145.987V161.086L0.526987 160.714ZM14.0813 140.695L28.0998 135.087V134.087L14.0813 139.695V140.695ZM27.6356 134.773V149.871L28.564 149.5V134.402L27.6356 134.773ZM28.0998 149.186L14.0813 154.793V155.793L28.0998 150.186V149.186ZM14.5455 155.107V140.009L13.617 140.38V155.479L14.5455 155.107ZM14.0813 155.793L28.0998 150.186V149.186L14.0813 154.793V155.793ZM27.6356 149.871V164.97L28.564 164.598V149.5L27.6356 149.871ZM28.0998 164.284L14.0813 169.891V170.891L28.0998 165.284V164.284ZM14.5455 170.205V155.107L13.617 155.479V170.577L14.5455 170.205ZM14.0813 170.891L28.0998 165.284V164.284L14.0813 169.891V170.891ZM27.6356 164.97V180.068L28.564 179.697V164.598L27.6356 164.97ZM28.0998 179.382L14.0813 184.989V185.989L28.0998 180.382V179.382ZM14.5455 185.304V170.205L13.617 170.577V185.675L14.5455 185.304ZM0.0627447 176.498L14.0813 170.891V169.891L0.0627447 175.498V176.498ZM13.617 170.577V185.675L14.5455 185.304V170.205L13.617 170.577ZM14.0813 184.989L0.0627447 190.597V191.597L14.0813 185.989V184.989ZM0.526987 190.911V175.813L-0.401497 176.184V191.282L0.526987 190.911ZM0.0627447 161.4L14.0813 155.793V154.793L0.0627447 160.4V161.4ZM13.617 155.479V170.577L14.5455 170.205V155.107L13.617 155.479ZM14.0813 169.891L0.0627447 175.498V176.498L14.0813 170.891V169.891ZM0.526987 175.813V160.714L-0.401497 161.086V176.184L0.526987 175.813ZM84.1739 82.4624L98.1925 76.8553V75.8553L84.1739 81.4624V82.4624ZM97.7282 76.541V91.6393L98.6567 91.2679V76.1696L97.7282 76.541ZM98.1925 90.9536L84.1739 96.5607V97.5607L98.1925 91.9536V90.9536ZM84.6382 96.875V81.7767L83.7097 82.1481V97.2464L84.6382 96.875Z" fill="#DDDDDD" style="fill:#DDDDDD;fill:color(display-p3 0.8662 0.8662 0.8662);fill-opacity:1;"/>
<path d="M14.0627 46.8221L28.0813 41.215V56.3133L14.0627 61.9204V46.8221ZM28.0813 41.215L42.0998 35.6079V50.7062L28.0813 56.3133V41.215ZM42.0998 35.6079L56.1183 30.0008V45.0991L42.0998 50.7062V35.6079ZM56.1183 30.0008L70.1369 24.3937V39.492L56.1183 45.0991V30.0008ZM70.1369 24.3937L84.1554 18.7866V33.8849L70.1369 39.492V24.3937ZM84.1554 18.7866L98.1739 13.1795V28.2778L84.1554 33.8849V18.7866ZM84.1554 33.8849L98.1739 28.2778V43.3761L84.1554 48.9832V33.8849ZM70.1369 39.492L84.1554 33.8849V48.9832L70.1369 54.5903V39.492ZM56.1183 45.0991L70.1369 39.492V54.5903L56.1183 60.1974V45.0991ZM42.0998 50.7062L56.1183 45.0991V60.1974L42.0998 65.8045V50.7062ZM28.0813 56.3133L42.0998 50.7062V65.8045L28.0813 71.4116V56.3133ZM14.0627 61.9204L28.0813 56.3133V71.4116L14.0627 77.0187V61.9204ZM98.1739 28.2778L112.192 22.6707V37.769L98.1739 43.3761V28.2778ZM84.1554 48.9832L98.1739 43.3761V58.4744L84.1554 64.0815V48.9832ZM98.1739 43.3761L112.192 37.769V52.8673L98.1739 58.4744V43.3761ZM98.1739 58.4744L112.192 52.8673V67.9656L98.1739 73.5727V58.4744ZM98.1739 73.5727L112.192 67.9656V83.0639L98.1739 88.671V73.5727ZM84.1554 79.1798L98.1739 73.5727V88.671L84.1554 94.2781V79.1798ZM84.1554 64.0815L98.1739 58.4744V73.5727L84.1554 79.1798V64.0815ZM84.1554 94.2781L98.1739 88.671V103.769L84.1554 109.376V94.2781ZM84.1554 109.376L98.1739 103.769V118.868L84.1554 124.475V109.376ZM70.1369 114.984L84.1554 109.376V124.475L70.1369 130.082V114.984ZM70.1369 99.8852L84.1554 94.2781V109.376L70.1369 114.984V99.8852ZM56.1183 105.492L70.1369 99.8852V114.984L56.1183 120.591V105.492ZM56.1183 120.591L70.1369 114.984V130.082L56.1183 135.689V120.591ZM42.0998 126.198L56.1183 120.591V135.689L42.0998 141.296V126.198ZM42.0998 111.099L56.1183 105.492V120.591L42.0998 126.198V111.099ZM28.0813 116.707L42.0998 111.099V126.198L28.0813 131.805V116.707ZM14.0627 122.314L28.0813 116.707V131.805L14.0627 137.412V122.314ZM14.0627 137.412L28.0813 131.805V146.903L14.0627 152.51V137.412ZM28.0813 131.805L42.0998 126.198V141.296L28.0813 146.903V131.805ZM14.0627 77.0187L28.0813 71.4116V86.5099L14.0627 92.117V77.0187ZM28.0813 71.4116L42.0998 65.8045V80.9028L28.0813 86.5099V71.4116ZM28.0813 86.5099L42.0998 80.9028V96.0011L28.0813 101.608V86.5099ZM28.0813 101.608L42.0998 96.0011V111.099L28.0813 116.707V101.608ZM14.0627 92.117L28.0813 86.5099V101.608L14.0627 107.215V92.117ZM14.0627 107.215L28.0813 101.608V116.707L14.0627 122.314V107.215ZM14.0627 152.51L28.0813 146.903V162.001L14.0627 167.609V152.51ZM28.0813 146.903L42.0998 141.296V156.394L28.0813 162.001V146.903ZM28.0813 162.001L42.0998 156.394V171.493L28.0813 177.1V162.001ZM28.0813 177.1L42.0998 171.493V186.591L28.0813 192.198V177.1ZM14.0627 182.707L28.0813 177.1V192.198L14.0627 197.805V182.707ZM14.0627 167.609L28.0813 162.001V177.1L14.0627 182.707V167.609ZM98.1739 88.671L112.192 83.0639V98.1622L98.1739 103.769V88.671Z" fill="#444444" style="fill:#444444;fill:color(display-p3 0.2657 0.2657 0.2657);fill-opacity:1;"/>
<path d="M14.0627 46.8221V46.3221L13.5985 46.5078V47.0078L14.0627 46.8221ZM28.0813 41.215L28.5455 41.0293V40.5293L28.0813 40.715V41.215ZM28.0813 56.3133V56.8133L28.5455 56.6276V56.1276L28.0813 56.3133ZM14.0627 61.9204L13.5985 62.1061V62.6061L14.0627 62.4204V61.9204ZM28.0813 41.215V40.715L27.617 40.9007V41.4007L28.0813 41.215ZM42.0998 35.6079L42.564 35.4222V34.9222L42.0998 35.1079V35.6079ZM42.0998 50.7062V51.2062L42.564 51.0205V50.5205L42.0998 50.7062ZM28.0813 56.3133L27.617 56.499V56.999L28.0813 56.8133V56.3133ZM42.0998 35.6079V35.1079L41.6356 35.2936V35.7936L42.0998 35.6079ZM56.1183 30.0008L56.5826 29.8151V29.3151L56.1183 29.5008V30.0008ZM56.1183 45.0991V45.5991L56.5826 45.4134V44.9134L56.1183 45.0991ZM42.0998 50.7062L41.6356 50.8919V51.3919L42.0998 51.2062V50.7062ZM56.1183 30.0008V29.5008L55.6541 29.6865V30.1865L56.1183 30.0008ZM70.1369 24.3937L70.6011 24.208V23.708L70.1369 23.8937V24.3937ZM70.1369 39.492V39.992L70.6011 39.8063V39.3063L70.1369 39.492ZM56.1183 45.0991L55.6541 45.2848V45.7848L56.1183 45.5991V45.0991ZM70.1369 24.3937V23.8937L69.6726 24.0794V24.5794L70.1369 24.3937ZM84.1554 18.7866L84.6196 18.6009V18.1009L84.1554 18.2866V18.7866ZM84.1554 33.8849V34.3849L84.6196 34.1992V33.6992L84.1554 33.8849ZM70.1369 39.492L69.6726 39.6777V40.1777L70.1369 39.992V39.492ZM84.1554 18.7866V18.2866L83.6912 18.4723V18.9723L84.1554 18.7866ZM98.1739 13.1795L98.6382 12.9938V12.4938L98.1739 12.6795V13.1795ZM98.1739 28.2778V28.7778L98.6382 28.5921V28.0921L98.1739 28.2778ZM84.1554 33.8849L83.6912 34.0706V34.5706L84.1554 34.3849V33.8849ZM84.1554 33.8849V33.3849L83.6912 33.5706V34.0706L84.1554 33.8849ZM98.1739 28.2778L98.6382 28.0921V27.5921L98.1739 27.7778V28.2778ZM98.1739 43.3761V43.8761L98.6382 43.6904V43.1904L98.1739 43.3761ZM84.1554 48.9832L83.6912 49.1689V49.6689L84.1554 49.4832V48.9832ZM70.1369 39.492V38.992L69.6726 39.1777V39.6777L70.1369 39.492ZM84.1554 33.8849L84.6196 33.6992V33.1992L84.1554 33.3849V33.8849ZM84.1554 48.9832V49.4832L84.6196 49.2975V48.7975L84.1554 48.9832ZM70.1369 54.5903L69.6726 54.776V55.276L70.1369 55.0903V54.5903ZM56.1183 45.0991V44.5991L55.6541 44.7848V45.2848L56.1183 45.0991ZM70.1369 39.492L70.6011 39.3063V38.8063L70.1369 38.992V39.492ZM70.1369 54.5903V55.0903L70.6011 54.9046V54.4046L70.1369 54.5903ZM56.1183 60.1974L55.6541 60.3831V60.8831L56.1183 60.6974V60.1974ZM42.0998 50.7062V50.2062L41.6356 50.3919V50.8919L42.0998 50.7062ZM56.1183 45.0991L56.5826 44.9134V44.4134L56.1183 44.5991V45.0991ZM56.1183 60.1974V60.6974L56.5826 60.5117V60.0117L56.1183 60.1974ZM42.0998 65.8045L41.6356 65.9902V66.4902L42.0998 66.3045V65.8045ZM28.0813 56.3133V55.8133L27.617 55.999V56.499L28.0813 56.3133ZM42.0998 50.7062L42.564 50.5205V50.0205L42.0998 50.2062V50.7062ZM42.0998 65.8045V66.3045L42.564 66.1188V65.6188L42.0998 65.8045ZM28.0813 71.4116L27.617 71.5973V72.0973L28.0813 71.9116V71.4116ZM14.0627 61.9204V61.4204L13.5985 61.6061V62.1061L14.0627 61.9204ZM28.0813 56.3133L28.5455 56.1276V55.6276L28.0813 55.8133V56.3133ZM28.0813 71.4116V71.9116L28.5455 71.7259V71.2259L28.0813 71.4116ZM14.0627 77.0187L13.5985 77.2044V77.7044L14.0627 77.5187V77.0187ZM98.1739 28.2778V27.7778L97.7097 27.9635V28.4635L98.1739 28.2778ZM112.192 22.6707L112.657 22.485V21.985L112.192 22.1707V22.6707ZM112.192 37.769V38.269L112.657 38.0833V37.5833L112.192 37.769ZM98.1739 43.3761L97.7097 43.5618V44.0618L98.1739 43.8761V43.3761ZM84.1554 48.9832V48.4832L83.6912 48.6689V49.1689L84.1554 48.9832ZM98.1739 43.3761L98.6382 43.1904V42.6904L98.1739 42.8761V43.3761ZM98.1739 58.4744V58.9744L98.6382 58.7887V58.2887L98.1739 58.4744ZM84.1554 64.0815L83.6912 64.2672V64.7672L84.1554 64.5815V64.0815ZM98.1739 43.3761V42.8761L97.7097 43.0618V43.5618L98.1739 43.3761ZM112.192 37.769L112.657 37.5833V37.0833L112.192 37.269V37.769ZM112.192 52.8673V53.3673L112.657 53.1816V52.6816L112.192 52.8673ZM98.1739 58.4744L97.7097 58.6601V59.1601L98.1739 58.9744V58.4744ZM98.1739 58.4744V57.9744L97.7097 58.1601V58.6601L98.1739 58.4744ZM112.192 52.8673L112.657 52.6816V52.1816L112.192 52.3673V52.8673ZM112.192 67.9656V68.4656L112.657 68.2799V67.7799L112.192 67.9656ZM98.1739 73.5727L97.7097 73.7584V74.2584L98.1739 74.0727V73.5727ZM98.1739 73.5727V73.0727L97.7097 73.2584V73.7584L98.1739 73.5727ZM112.192 67.9656L112.657 67.7799V67.2799L112.192 67.4656V67.9656ZM112.192 83.0639V83.5639L112.657 83.3782V82.8782L112.192 83.0639ZM98.1739 88.671L97.7097 88.8567V89.3567L98.1739 89.171V88.671ZM84.1554 79.1798V78.6798L83.6912 78.8655V79.3655L84.1554 79.1798ZM98.1739 73.5727L98.6382 73.387V72.887L98.1739 73.0727V73.5727ZM98.1739 88.671V89.171L98.6382 88.9853V88.4853L98.1739 88.671ZM84.1554 94.2781L83.6912 94.4638V94.9638L84.1554 94.7781V94.2781ZM84.1554 64.0815V63.5815L83.6912 63.7672V64.2672L84.1554 64.0815ZM98.1739 58.4744L98.6382 58.2887V57.7887L98.1739 57.9744V58.4744ZM98.1739 73.5727V74.0727L98.6382 73.887V73.387L98.1739 73.5727ZM84.1554 79.1798L83.6912 79.3655V79.8655L84.1554 79.6798V79.1798ZM84.1554 94.2781V93.7781L83.6912 93.9638V94.4638L84.1554 94.2781ZM98.1739 88.671L98.6382 88.4853V87.9853L98.1739 88.171V88.671ZM98.1739 103.769V104.269L98.6382 104.084V103.584L98.1739 103.769ZM84.1554 109.376L83.6912 109.562V110.062L84.1554 109.876V109.376ZM84.1554 109.376V108.876L83.6912 109.062V109.562L84.1554 109.376ZM98.1739 103.769L98.6382 103.584V103.084L98.1739 103.269V103.769ZM98.1739 118.868V119.368L98.6382 119.182V118.682L98.1739 118.868ZM84.1554 124.475L83.6912 124.66V125.16L84.1554 124.975V124.475ZM70.1369 114.984V114.484L69.6726 114.669V115.169L70.1369 114.984ZM84.1554 109.376L84.6196 109.191V108.691L84.1554 108.876V109.376ZM84.1554 124.475V124.975L84.6196 124.789V124.289L84.1554 124.475ZM70.1369 130.082L69.6726 130.267V130.767L70.1369 130.582V130.082ZM70.1369 99.8852V99.3852L69.6726 99.5709V100.071L70.1369 99.8852ZM84.1554 94.2781L84.6196 94.0924V93.5924L84.1554 93.7781V94.2781ZM84.1554 109.376V109.876L84.6196 109.691V109.191L84.1554 109.376ZM70.1369 114.984L69.6726 115.169V115.669L70.1369 115.484V114.984ZM56.1183 105.492V104.992L55.6541 105.178V105.678L56.1183 105.492ZM70.1369 99.8852L70.6011 99.6995V99.1995L70.1369 99.3852V99.8852ZM70.1369 114.984V115.484L70.6011 115.298V114.798L70.1369 114.984ZM56.1183 120.591L55.6541 120.776V121.276L56.1183 121.091V120.591ZM56.1183 120.591V120.091L55.6541 120.276V120.776L56.1183 120.591ZM70.1369 114.984L70.6011 114.798V114.298L70.1369 114.484V114.984ZM70.1369 130.082V130.582L70.6011 130.396V129.896L70.1369 130.082ZM56.1183 135.689L55.6541 135.875V136.375L56.1183 136.189V135.689ZM42.0998 126.198V125.698L41.6356 125.883V126.383L42.0998 126.198ZM56.1183 120.591L56.5826 120.405V119.905L56.1183 120.091V120.591ZM56.1183 135.689V136.189L56.5826 136.003V135.503L56.1183 135.689ZM42.0998 141.296L41.6356 141.482V141.982L42.0998 141.796V141.296ZM42.0998 111.099V110.599L41.6356 110.785V111.285L42.0998 111.099ZM56.1183 105.492L56.5826 105.307V104.807L56.1183 104.992V105.492ZM56.1183 120.591V121.091L56.5826 120.905V120.405L56.1183 120.591ZM42.0998 126.198L41.6356 126.383V126.883L42.0998 126.698V126.198ZM28.0813 116.707V116.207L27.617 116.392V116.892L28.0813 116.707ZM42.0998 111.099L42.564 110.914V110.414L42.0998 110.599V111.099ZM42.0998 126.198V126.698L42.564 126.512V126.012L42.0998 126.198ZM28.0813 131.805L27.617 131.99V132.49L28.0813 132.305V131.805ZM14.0627 122.314V121.814L13.5985 121.999V122.499L14.0627 122.314ZM28.0813 116.707L28.5455 116.521V116.021L28.0813 116.207V116.707ZM28.0813 131.805V132.305L28.5455 132.119V131.619L28.0813 131.805ZM14.0627 137.412L13.5985 137.598V138.098L14.0627 137.912V137.412ZM14.0627 137.412V136.912L13.5985 137.098V137.598L14.0627 137.412ZM28.0813 131.805L28.5455 131.619V131.119L28.0813 131.305V131.805ZM28.0813 146.903V147.403L28.5455 147.217V146.717L28.0813 146.903ZM14.0627 152.51L13.5985 152.696V153.196L14.0627 153.01V152.51ZM28.0813 131.805V131.305L27.617 131.49V131.99L28.0813 131.805ZM42.0998 126.198L42.564 126.012V125.512L42.0998 125.698V126.198ZM42.0998 141.296V141.796L42.564 141.61V141.11L42.0998 141.296ZM28.0813 146.903L27.617 147.089V147.589L28.0813 147.403V146.903ZM14.0627 77.0187V76.5187L13.5985 76.7044V77.2044L14.0627 77.0187ZM28.0813 71.4116L28.5455 71.2259V70.7259L28.0813 70.9116V71.4116ZM28.0813 86.5099V87.0099L28.5455 86.8242V86.3242L28.0813 86.5099ZM14.0627 92.117L13.5985 92.3027V92.8027L14.0627 92.617V92.117ZM28.0813 71.4116V70.9116L27.617 71.0973V71.5973L28.0813 71.4116ZM42.0998 65.8045L42.564 65.6188V65.1188L42.0998 65.3045V65.8045ZM42.0998 80.9028V81.4028L42.564 81.2171V80.7171L42.0998 80.9028ZM28.0813 86.5099L27.617 86.6956V87.1956L28.0813 87.0099V86.5099ZM28.0813 86.5099V86.0099L27.617 86.1956V86.6956L28.0813 86.5099ZM42.0998 80.9028L42.564 80.7171V80.2171L42.0998 80.4028V80.9028ZM42.0998 96.0011V96.5011L42.564 96.3154V95.8154L42.0998 96.0011ZM28.0813 101.608L27.617 101.794V102.294L28.0813 102.108V101.608ZM28.0813 101.608V101.108L27.617 101.294V101.794L28.0813 101.608ZM42.0998 96.0011L42.564 95.8154V95.3154L42.0998 95.5011V96.0011ZM42.0998 111.099V111.599L42.564 111.414V110.914L42.0998 111.099ZM28.0813 116.707L27.617 116.892V117.392L28.0813 117.207V116.707ZM14.0627 92.117V91.617L13.5985 91.8027V92.3027L14.0627 92.117ZM28.0813 86.5099L28.5455 86.3242V85.8242L28.0813 86.0099V86.5099ZM28.0813 101.608V102.108L28.5455 101.923V101.423L28.0813 101.608ZM14.0627 107.215L13.5985 107.401V107.901L14.0627 107.715V107.215ZM14.0627 107.215V106.715L13.5985 106.901V107.401L14.0627 107.215ZM28.0813 101.608L28.5455 101.423V100.923L28.0813 101.108V101.608ZM28.0813 116.707V117.207L28.5455 117.021V116.521L28.0813 116.707ZM14.0627 122.314L13.5985 122.499V122.999L14.0627 122.814V122.314ZM14.0627 152.51V152.01L13.5985 152.196V152.696L14.0627 152.51ZM28.0813 146.903L28.5455 146.717V146.217L28.0813 146.403V146.903ZM28.0813 162.001V162.501L28.5455 162.316V161.816L28.0813 162.001ZM14.0627 167.609L13.5985 167.794V168.294L14.0627 168.109V167.609ZM28.0813 146.903V146.403L27.617 146.589V147.089L28.0813 146.903ZM42.0998 141.296L42.564 141.11V140.61L42.0998 140.796V141.296ZM42.0998 156.394V156.894L42.564 156.709V156.209L42.0998 156.394ZM28.0813 162.001L27.617 162.187V162.687L28.0813 162.501V162.001ZM28.0813 162.001V161.501L27.617 161.687V162.187L28.0813 162.001ZM42.0998 156.394L42.564 156.209V155.709L42.0998 155.894V156.394ZM42.0998 171.493V171.993L42.564 171.807V171.307L42.0998 171.493ZM28.0813 177.1L27.617 177.285V177.785L28.0813 177.6V177.1ZM28.0813 177.1V176.6L27.617 176.785V177.285L28.0813 177.1ZM42.0998 171.493L42.564 171.307V170.807L42.0998 170.993V171.493ZM42.0998 186.591V187.091L42.564 186.905V186.405L42.0998 186.591ZM28.0813 192.198L27.617 192.384V192.884L28.0813 192.698V192.198ZM14.0627 182.707V182.207L13.5985 182.393V182.893L14.0627 182.707ZM28.0813 177.1L28.5455 176.914V176.414L28.0813 176.6V177.1ZM28.0813 192.198V192.698L28.5455 192.512V192.012L28.0813 192.198ZM14.0627 197.805L13.5985 197.991V198.491L14.0627 198.305V197.805ZM14.0627 167.609V167.109L13.5985 167.294V167.794L14.0627 167.609ZM28.0813 162.001L28.5455 161.816V161.316L28.0813 161.501V162.001ZM28.0813 177.1V177.6L28.5455 177.414V176.914L28.0813 177.1ZM14.0627 182.707L13.5985 182.893V183.393L14.0627 183.207V182.707ZM98.1739 88.671V88.171L97.7097 88.3567V88.8567L98.1739 88.671ZM112.192 83.0639L112.657 82.8782V82.3782L112.192 82.5639V83.0639ZM112.192 98.1622V98.6622L112.657 98.4765V97.9765L112.192 98.1622ZM98.1739 103.769L97.7097 103.955V104.455L98.1739 104.269V103.769ZM14.0627 47.3221L28.0813 41.715V40.715L14.0627 46.3221V47.3221ZM27.617 41.4007V56.499L28.5455 56.1276V41.0293L27.617 41.4007ZM28.0813 55.8133L14.0627 61.4204V62.4204L28.0813 56.8133V55.8133ZM14.527 61.7347V46.6364L13.5985 47.0078V62.1061L14.527 61.7347ZM28.0813 41.715L42.0998 36.1079V35.1079L28.0813 40.715V41.715ZM41.6356 35.7936V50.8919L42.564 50.5205V35.4222L41.6356 35.7936ZM42.0998 50.2062L28.0813 55.8133V56.8133L42.0998 51.2062V50.2062ZM28.5455 56.1276V41.0293L27.617 41.4007V56.499L28.5455 56.1276ZM42.0998 36.1079L56.1183 30.5008V29.5008L42.0998 35.1079V36.1079ZM55.6541 30.1865V45.2848L56.5826 44.9134V29.8151L55.6541 30.1865ZM56.1183 44.5991L42.0998 50.2062V51.2062L56.1183 45.5991V44.5991ZM42.564 50.5205V35.4222L41.6356 35.7936V50.8919L42.564 50.5205ZM56.1183 30.5008L70.1369 24.8937V23.8937L56.1183 29.5008V30.5008ZM69.6726 24.5794V39.6777L70.6011 39.3063V24.208L69.6726 24.5794ZM70.1369 38.992L56.1183 44.5991V45.5991L70.1369 39.992V38.992ZM56.5826 44.9134V29.8151L55.6541 30.1865V45.2848L56.5826 44.9134ZM70.1369 24.8937L84.1554 19.2866V18.2866L70.1369 23.8937V24.8937ZM83.6912 18.9723V34.0706L84.6196 33.6992V18.6009L83.6912 18.9723ZM84.1554 33.3849L70.1369 38.992V39.992L84.1554 34.3849V33.3849ZM70.6011 39.3063V24.208L69.6726 24.5794V39.6777L70.6011 39.3063ZM84.1554 19.2866L98.1739 13.6795V12.6795L84.1554 18.2866V19.2866ZM97.7097 13.3652V28.4635L98.6382 28.0921V12.9938L97.7097 13.3652ZM98.1739 27.7778L84.1554 33.3849V34.3849L98.1739 28.7778V27.7778ZM84.6196 33.6992V18.6009L83.6912 18.9723V34.0706L84.6196 33.6992ZM84.1554 34.3849L98.1739 28.7778V27.7778L84.1554 33.3849V34.3849ZM97.7097 28.4635V43.5618L98.6382 43.1904V28.0921L97.7097 28.4635ZM98.1739 42.8761L84.1554 48.4832V49.4832L98.1739 43.8761V42.8761ZM84.6196 48.7975V33.6992L83.6912 34.0706V49.1689L84.6196 48.7975ZM70.1369 39.992L84.1554 34.3849V33.3849L70.1369 38.992V39.992ZM83.6912 34.0706V49.1689L84.6196 48.7975V33.6992L83.6912 34.0706ZM84.1554 48.4832L70.1369 54.0903V55.0903L84.1554 49.4832V48.4832ZM70.6011 54.4046V39.3063L69.6726 39.6777V54.776L70.6011 54.4046ZM56.1183 45.5991L70.1369 39.992V38.992L56.1183 44.5991V45.5991ZM69.6726 39.6777V54.776L70.6011 54.4046V39.3063L69.6726 39.6777ZM70.1369 54.0903L56.1183 59.6974V60.6974L70.1369 55.0903V54.0903ZM56.5826 60.0117V44.9134L55.6541 45.2848V60.3831L56.5826 60.0117ZM42.0998 51.2062L56.1183 45.5991V44.5991L42.0998 50.2062V51.2062ZM55.6541 45.2848V60.3831L56.5826 60.0117V44.9134L55.6541 45.2848ZM56.1183 59.6974L42.0998 65.3045V66.3045L56.1183 60.6974V59.6974ZM42.564 65.6188V50.5205L41.6356 50.8919V65.9902L42.564 65.6188ZM28.0813 56.8133L42.0998 51.2062V50.2062L28.0813 55.8133V56.8133ZM41.6356 50.8919V65.9902L42.564 65.6188V50.5205L41.6356 50.8919ZM42.0998 65.3045L28.0813 70.9116V71.9116L42.0998 66.3045V65.3045ZM28.5455 71.2259V56.1276L27.617 56.499V71.5973L28.5455 71.2259ZM14.0627 62.4204L28.0813 56.8133V55.8133L14.0627 61.4204V62.4204ZM27.617 56.499V71.5973L28.5455 71.2259V56.1276L27.617 56.499ZM28.0813 70.9116L14.0627 76.5187V77.5187L28.0813 71.9116V70.9116ZM14.527 76.833V61.7347L13.5985 62.1061V77.2044L14.527 76.833ZM98.1739 28.7778L112.192 23.1707V22.1707L98.1739 27.7778V28.7778ZM111.728 22.8564V37.9547L112.657 37.5833V22.485L111.728 22.8564ZM112.192 37.269L98.1739 42.8761V43.8761L112.192 38.269V37.269ZM98.6382 43.1904V28.0921L97.7097 28.4635V43.5618L98.6382 43.1904ZM84.1554 49.4832L98.1739 43.8761V42.8761L84.1554 48.4832V49.4832ZM97.7097 43.5618V58.6601L98.6382 58.2887V43.1904L97.7097 43.5618ZM98.1739 57.9744L84.1554 63.5815V64.5815L98.1739 58.9744V57.9744ZM84.6196 63.8958V48.7975L83.6912 49.1689V64.2672L84.6196 63.8958ZM98.1739 43.8761L112.192 38.269V37.269L98.1739 42.8761V43.8761ZM111.728 37.9547V53.053L112.657 52.6816V37.5833L111.728 37.9547ZM112.192 52.3673L98.1739 57.9744V58.9744L112.192 53.3673V52.3673ZM98.6382 58.2887V43.1904L97.7097 43.5618V58.6601L98.6382 58.2887ZM98.1739 58.9744L112.192 53.3673V52.3673L98.1739 57.9744V58.9744ZM111.728 53.053V68.1513L112.657 67.7799V52.6816L111.728 53.053ZM112.192 67.4656L98.1739 73.0727V74.0727L112.192 68.4656V67.4656ZM98.6382 73.387V58.2887L97.7097 58.6601V73.7584L98.6382 73.387ZM98.1739 74.0727L112.192 68.4656V67.4656L98.1739 73.0727V74.0727ZM111.728 68.1513V83.2496L112.657 82.8782V67.7799L111.728 68.1513ZM112.192 82.5639L98.1739 88.171V89.171L112.192 83.5639V82.5639ZM98.6382 88.4853V73.387L97.7097 73.7584V88.8567L98.6382 88.4853ZM84.1554 79.6798L98.1739 74.0727V73.0727L84.1554 78.6798V79.6798ZM97.7097 73.7584V88.8567L98.6382 88.4853V73.387L97.7097 73.7584ZM98.1739 88.171L84.1554 93.7781V94.7781L98.1739 89.171V88.171ZM84.6196 94.0924V78.9941L83.6912 79.3655V94.4638L84.6196 94.0924ZM84.1554 64.5815L98.1739 58.9744V57.9744L84.1554 63.5815V64.5815ZM97.7097 58.6601V73.7584L98.6382 73.387V58.2887L97.7097 58.6601ZM98.1739 73.0727L84.1554 78.6798V79.6798L98.1739 74.0727V73.0727ZM84.6196 78.9941V63.8958L83.6912 64.2672V79.3655L84.6196 78.9941ZM84.1554 94.7781L98.1739 89.171V88.171L84.1554 93.7781V94.7781ZM97.7097 88.8567V103.955L98.6382 103.584V88.4853L97.7097 88.8567ZM98.1739 103.269L84.1554 108.876V109.876L98.1739 104.269V103.269ZM84.6196 109.191V94.0924L83.6912 94.4638V109.562L84.6196 109.191ZM84.1554 109.876L98.1739 104.269V103.269L84.1554 108.876V109.876ZM97.7097 103.955V119.053L98.6382 118.682V103.584L97.7097 103.955ZM98.1739 118.368L84.1554 123.975V124.975L98.1739 119.368V118.368ZM84.6196 124.289V109.191L83.6912 109.562V124.66L84.6196 124.289ZM70.1369 115.484L84.1554 109.876V108.876L70.1369 114.484V115.484ZM83.6912 109.562V124.66L84.6196 124.289V109.191L83.6912 109.562ZM84.1554 123.975L70.1369 129.582V130.582L84.1554 124.975V123.975ZM70.6011 129.896V114.798L69.6726 115.169V130.267L70.6011 129.896ZM70.1369 100.385L84.1554 94.7781V93.7781L70.1369 99.3852V100.385ZM83.6912 94.4638V109.562L84.6196 109.191V94.0924L83.6912 94.4638ZM84.1554 108.876L70.1369 114.484V115.484L84.1554 109.876V108.876ZM70.6011 114.798V99.6995L69.6726 100.071V115.169L70.6011 114.798ZM56.1183 105.992L70.1369 100.385V99.3852L56.1183 104.992V105.992ZM69.6726 100.071V115.169L70.6011 114.798V99.6995L69.6726 100.071ZM70.1369 114.484L56.1183 120.091V121.091L70.1369 115.484V114.484ZM56.5826 120.405V105.307L55.6541 105.678V120.776L56.5826 120.405ZM56.1183 121.091L70.1369 115.484V114.484L56.1183 120.091V121.091ZM69.6726 115.169V130.267L70.6011 129.896V114.798L69.6726 115.169ZM70.1369 129.582L56.1183 135.189V136.189L70.1369 130.582V129.582ZM56.5826 135.503V120.405L55.6541 120.776V135.875L56.5826 135.503ZM42.0998 126.698L56.1183 121.091V120.091L42.0998 125.698V126.698ZM55.6541 120.776V135.875L56.5826 135.503V120.405L55.6541 120.776ZM56.1183 135.189L42.0998 140.796V141.796L56.1183 136.189V135.189ZM42.564 141.11V126.012L41.6356 126.383V141.482L42.564 141.11ZM42.0998 111.599L56.1183 105.992V104.992L42.0998 110.599V111.599ZM55.6541 105.678V120.776L56.5826 120.405V105.307L55.6541 105.678ZM56.1183 120.091L42.0998 125.698V126.698L56.1183 121.091V120.091ZM42.564 126.012V110.914L41.6356 111.285V126.383L42.564 126.012ZM28.0813 117.207L42.0998 111.599V110.599L28.0813 116.207V117.207ZM41.6356 111.285V126.383L42.564 126.012V110.914L41.6356 111.285ZM42.0998 125.698L28.0813 131.305V132.305L42.0998 126.698V125.698ZM28.5455 131.619V116.521L27.617 116.892V131.99L28.5455 131.619ZM14.0627 122.814L28.0813 117.207V116.207L14.0627 121.814V122.814ZM27.617 116.892V131.99L28.5455 131.619V116.521L27.617 116.892ZM28.0813 131.305L14.0627 136.912V137.912L28.0813 132.305V131.305ZM14.527 137.226V122.128L13.5985 122.499V137.598L14.527 137.226ZM14.0627 137.912L28.0813 132.305V131.305L14.0627 136.912V137.912ZM27.617 131.99V147.089L28.5455 146.717V131.619L27.617 131.99ZM28.0813 146.403L14.0627 152.01V153.01L28.0813 147.403V146.403ZM14.527 152.325V137.226L13.5985 137.598V152.696L14.527 152.325ZM28.0813 132.305L42.0998 126.698V125.698L28.0813 131.305V132.305ZM41.6356 126.383V141.482L42.564 141.11V126.012L41.6356 126.383ZM42.0998 140.796L28.0813 146.403V147.403L42.0998 141.796V140.796ZM28.5455 146.717V131.619L27.617 131.99V147.089L28.5455 146.717ZM14.0627 77.5187L28.0813 71.9116V70.9116L14.0627 76.5187V77.5187ZM27.617 71.5973V86.6956L28.5455 86.3242V71.2259L27.617 71.5973ZM28.0813 86.0099L14.0627 91.617V92.617L28.0813 87.0099V86.0099ZM14.527 91.9313V76.833L13.5985 77.2044V92.3027L14.527 91.9313ZM28.0813 71.9116L42.0998 66.3045V65.3045L28.0813 70.9116V71.9116ZM41.6356 65.9902V81.0885L42.564 80.7171V65.6188L41.6356 65.9902ZM42.0998 80.4028L28.0813 86.0099V87.0099L42.0998 81.4028V80.4028ZM28.5455 86.3242V71.2259L27.617 71.5973V86.6956L28.5455 86.3242ZM28.0813 87.0099L42.0998 81.4028V80.4028L28.0813 86.0099V87.0099ZM41.6356 81.0885V96.1868L42.564 95.8154V80.7171L41.6356 81.0885ZM42.0998 95.5011L28.0813 101.108V102.108L42.0998 96.5011V95.5011ZM28.5455 101.423V86.3242L27.617 86.6956V101.794L28.5455 101.423ZM28.0813 102.108L42.0998 96.5011V95.5011L28.0813 101.108V102.108ZM41.6356 96.1868V111.285L42.564 110.914V95.8154L41.6356 96.1868ZM42.0998 110.599L28.0813 116.207V117.207L42.0998 111.599V110.599ZM28.5455 116.521V101.423L27.617 101.794V116.892L28.5455 116.521ZM14.0627 92.617L28.0813 87.0099V86.0099L14.0627 91.617V92.617ZM27.617 86.6956V101.794L28.5455 101.423V86.3242L27.617 86.6956ZM28.0813 101.108L14.0627 106.715V107.715L28.0813 102.108V101.108ZM14.527 107.03V91.9313L13.5985 92.3027V107.401L14.527 107.03ZM14.0627 107.715L28.0813 102.108V101.108L14.0627 106.715V107.715ZM27.617 101.794V116.892L28.5455 116.521V101.423L27.617 101.794ZM28.0813 116.207L14.0627 121.814V122.814L28.0813 117.207V116.207ZM14.527 122.128V107.03L13.5985 107.401V122.499L14.527 122.128ZM14.0627 153.01L28.0813 147.403V146.403L14.0627 152.01V153.01ZM27.617 147.089V162.187L28.5455 161.816V146.717L27.617 147.089ZM28.0813 161.501L14.0627 167.109V168.109L28.0813 162.501V161.501ZM14.527 167.423V152.325L13.5985 152.696V167.794L14.527 167.423ZM28.0813 147.403L42.0998 141.796V140.796L28.0813 146.403V147.403ZM41.6356 141.482V156.58L42.564 156.209V141.11L41.6356 141.482ZM42.0998 155.894L28.0813 161.501V162.501L42.0998 156.894V155.894ZM28.5455 161.816V146.717L27.617 147.089V162.187L28.5455 161.816ZM28.0813 162.501L42.0998 156.894V155.894L28.0813 161.501V162.501ZM41.6356 156.58V171.678L42.564 171.307V156.209L41.6356 156.58ZM42.0998 170.993L28.0813 176.6V177.6L42.0998 171.993V170.993ZM28.5455 176.914V161.816L27.617 162.187V177.285L28.5455 176.914ZM28.0813 177.6L42.0998 171.993V170.993L28.0813 176.6V177.6ZM41.6356 171.678V186.777L42.564 186.405V171.307L41.6356 171.678ZM42.0998 186.091L28.0813 191.698V192.698L42.0998 187.091V186.091ZM28.5455 192.012V176.914L27.617 177.285V192.384L28.5455 192.012ZM14.0627 183.207L28.0813 177.6V176.6L14.0627 182.207V183.207ZM27.617 177.285V192.384L28.5455 192.012V176.914L27.617 177.285ZM28.0813 191.698L14.0627 197.305V198.305L28.0813 192.698V191.698ZM14.527 197.619V182.521L13.5985 182.893V197.991L14.527 197.619ZM14.0627 168.109L28.0813 162.501V161.501L14.0627 167.109V168.109ZM27.617 162.187V177.285L28.5455 176.914V161.816L27.617 162.187ZM28.0813 176.6L14.0627 182.207V183.207L28.0813 177.6V176.6ZM14.527 182.521V167.423L13.5985 167.794V182.893L14.527 182.521ZM98.1739 89.171L112.192 83.5639V82.5639L98.1739 88.171V89.171ZM111.728 83.2496V98.3479L112.657 97.9765V82.8782L111.728 83.2496ZM112.192 97.6622L98.1739 103.269V104.269L112.192 98.6622V97.6622ZM98.6382 103.584V88.4853L97.7097 88.8567V103.955L98.6382 103.584Z" fill="#DDDDDD" style="fill:#DDDDDD;fill:color(display-p3 0.8662 0.8662 0.8662);fill-opacity:1;"/>
</svg>
